<svg xmlns="http://www.w3.org/2000/svg" viewBox="0 0 100 55.25"><defs><style>.cls-1{fill:#fff;}</style></defs><g id="Layer_2" data-name="Layer 2">

<g id="Layer_1-2" data-name="Layer 1">
    <path class="cls-1" d="M45.33,31c.34,0,.69-.1,1-.1,3.64,0,7.28,0,10.91,0a1.33,1.33,0,0,1,1.53,1.16,11.91,11.91,0,0,0,12.45,8.63c6.79-.41,11.2-4.66,12-11s-2.09-11.26-6.12-13.49c-4.49-2.48-12.39-2.1-16,2.82L55,8c.68-.48,1.6-1.21,2.59-1.84C62.18,3.19,67.3,2.6,72.65,2.82c11.6.47,22,9.57,23.88,20.92A24.59,24.59,0,0,1,81.15,50.42c-10.37,3.92-20,2.56-28.47-5C48.66,41.84,45.49,35.66,45.33,31Z"/>
    <path  class="cls-1"  d="M45.2,47.35a23.3,23.3,0,0,1-10,4.61c-11,2.18-20.11-.82-27.05-9.67s-6.63-24,3.16-32.65A26.18,26.18,0,0,1,30.47,2.78a25.72,25.72,0,0,1,24,19.32c.13.51.18,1,.29,1.76H47.55c-1.66,0-3.32-.05-5,0A1.43,1.43,0,0,1,41,22.75c-1.87-4.93-5.6-7.51-10.76-7.92a12.06,12.06,0,0,0-11.64,5.43c-4.27,6.36-2.45,17.94,7.49,20.1a12.6,12.6,0,0,0,12.85-4C41,39.89,43,43.51,45.2,47.35Z"/>
</g></g></svg>