<svg id="Layer_1" data-name="Layer 1" xmlns="http://www.w3.org/2000/svg" viewBox="0 0 98.34 100"><defs><style>.cls-1{fill:#fff;}</style></defs><path class="cls-1" d="M90,44.23S79.26,57.52,77.58,80.63A95,95,0,0,0,53,92.16,50.64,50.64,0,0,1,75.68,78.08c1-27,16-43.46,16-43.46l.06-.07h-.1s-17.73-.5-38.22,15.15l.2-20.93H71.84l2.48-7.66H53.69L53.88,0H46.13l.18,21.11H25.68l2.48,7.67H46.38l.2,20.92C26.09,34.06,8.35,34.55,8.35,34.55H8.26l.05.07s15,16.44,16,43.46A50.53,50.53,0,0,1,47.06,92.16,95.19,95.19,0,0,0,22.43,80.63C20.74,57.52,10,44.23,10,44.23A14.53,14.53,0,0,0,6.5,43.1a39,39,0,0,0-5.67-.81S17.2,59.8,18,85c0,0,19.56,3.84,29.44,12.55A22.54,22.54,0,0,1,50,100a22.54,22.54,0,0,1,2.55-2.45C62.43,88.84,82,85,82,85c.81-25.2,17.18-42.71,17.18-42.71a39,39,0,0,0-5.67.81A14.53,14.53,0,0,0,90,44.23ZM37.42,64.59a48.92,48.92,0,0,0-4.61-19A33.93,33.93,0,0,1,48,54.26l.25,16.92C44.42,68.1,42.37,66.5,37.42,64.59ZM52,54.26a33.93,33.93,0,0,1,15.18-8.62,48.92,48.92,0,0,0-4.61,19c-4.95,1.91-7,3.51-10.82,6.59Z" transform="translate(-0.83 0)"/></svg>