<svg id="Layer_1" data-name="Layer 1" xmlns="http://www.w3.org/2000/svg" viewBox="0 0 156.26 127.7"><defs><style>.cls-1{fill:none;}.cls-2{fill:#fff;}</style></defs>
<rect class="cls-1" x="-16.96" y="-8.29" width="182.51" height="140.27"/>
<path class="cls-2" d="M136.25,120.32A216.55,216.55,0,0,1,130,88q-.66-5.7-1-11.52V50.24c.21-3.46.53-6.89.9-10.31A215.75,215.75,0,0,1,136,7.15a1.18,1.18,0,0,0-1.45-1.45,215.74,215.74,0,0,1-32.33,6.21c-3.81.43-7.65.78-11.53,1H64.52c-3.45-.21-6.88-.53-10.29-.9A217,217,0,0,1,21.47,5.91,1.18,1.18,0,0,0,20,7.36a217.16,217.16,0,0,1,6.23,32.57q.63,5.61,1,11.31V77.45C27,81,26.7,84.49,26.32,88a214.62,214.62,0,0,1-6.1,32.58A1.18,1.18,0,0,0,21.68,122a215.68,215.68,0,0,1,32.55-6.25q5.61-.65,11.3-1H91.72c3.54.21,7,.54,10.53.93a215.68,215.68,0,0,1,32.55,6.09A1.18,1.18,0,0,0,136.25,120.32ZM73.92,55H58.35v6.12H72.07v5.75H58.35V78H52V49.26h21.9Zm18.53,23.5A14.52,14.52,0,0,1,77.7,63.73v-.09a14.62,14.62,0,0,1,15-14.87c5.43,0,8.67,1.81,11.34,4.44l-4,4.64c-2.22-2-4.48-3.24-7.36-3.24-4.84,0-8.34,4-8.34,9v.08c0,4.93,3.41,9,8.34,9,3.29,0,5.3-1.31,7.56-3.37l4,4.07A14.72,14.72,0,0,1,92.45,78.52Z"/></svg>