<svg xmlns="http://www.w3.org/2000/svg" viewBox="0 0 125 121.97">
    <defs>
        <style>.cls-1{}.cls-2{fill:white;}</style>
        <mask id="villageLogo">
        <g id="Layer_2" data-name="Layer 2"><g id="Layer_1-2" data-name="Layer 1"><path class="cls-2" d="M15.57,60.09c0-14.67,0-29.35-.05-44,0-2.24.59-2.88,2.86-2.88q44.18.12,88.36,0c2.08,0,2.73.56,2.73,2.69q-.1,44.18,0,88.34c0,2.1-.57,2.73-2.7,2.73q-44.17-.1-88.35,0c-2.23,0-2.91-.56-2.89-2.85C15.62,89.44,15.57,74.77,15.57,60.09Z"/><path class="cls-1" d="M44.14,31.37c1.57.18,2,1.15,2.56,2C55.4,46.22,64.07,59.13,72.83,72a2,2,0,0,1,0,2.63c-2.89,4.22-5.79,8.44-8.6,12.71-1.23,1.88-2.32,2-3.62.14Q47.27,68.11,34,48.78a1.85,1.85,0,0,1-.12-2.42c3.05-4.6,6.05-9.23,9.08-13.84C43.29,31.93,43.66,31.3,44.14,31.37Z"/><path class="cls-1" d="M91.8,47.1c-.32.53-.64,1.15-1,1.72q-6.1,8.94-12.23,17.86c-1.58,2.3-2.45,2.33-4,.09q-6.41-9.27-12.7-18.63c-1.43-2.1-1.07-2.81,1.47-2.82,8.72,0,17.45,0,26.17,0C90.67,45.3,91.71,45.48,91.8,47.1Z"/></g></g>
        </mask>
    </defs>
    <rect height="121"  width="121" mask="url(#villageLogo)" fill="white"/>

    </svg>