<?xml version="1.0" encoding="utf-8"?>
<!-- Generator: Adobe Illustrator 24.3.0, SVG Export Plug-In . SVG Version: 6.00 Build 0)  -->
<svg version="1.1" id="Layer_1" xmlns="http://www.w3.org/2000/svg" xmlns:xlink="http://www.w3.org/1999/xlink" x="0px" y="0px"
	 viewBox="0 0 100 100" style="enable-background:new 0 0 100 100;" xml:space="preserve">
<style type="text/css">
	.st0{fill:#231F20;}
</style>
<g>
	<path class="st0" d="M90,44.2c0,0-10.7,13.3-12.4,36.4c0,0-11.5,3-24.6,11.5c9.8-10.9,22.7-14.1,22.7-14.1c1-27,16-43.5,16-43.5
		l0.1-0.1l-0.1,0c0,0-17.7-0.5-38.2,15.2l0.2-20.9h18.2l2.5-7.7H53.7L53.9,0h-7.8l0.2,21.1H25.7l2.5,7.7h18.2l0.2,20.9
		C26.1,34.1,8.4,34.6,8.4,34.6l-0.1,0l0.1,0.1c0,0,15,16.4,16,43.5c0,0,12.9,3.2,22.7,14.1c-13.2-8.5-24.6-11.5-24.6-11.5
		C20.7,57.5,10,44.2,10,44.2s-1.2-0.7-3.5-1.1c-3.3-0.7-5.7-0.8-5.7-0.8S17.2,59.8,18,85c0,0,19.6,3.8,29.4,12.5c0,0,1.2,1,2.5,2.5
		c1.3-1.5,2.5-2.5,2.5-2.5C62.4,88.8,82,85,82,85c0.8-25.2,17.2-42.7,17.2-42.7s-2.4,0.1-5.7,0.8C91.2,43.6,90,44.2,90,44.2z
		 M37.4,64.6c-0.2-7.7-2.3-13.6-4.6-18.9c4.5,1,10,3.7,15.2,8.6l0.2,16.9C44.4,68.1,42.4,66.5,37.4,64.6z M52,54.3
		c5.2-4.9,10.7-7.6,15.2-8.6c-2.3,5.3-4.4,11.3-4.6,18.9c-4.9,1.9-7,3.5-10.8,6.6L52,54.3z"/>
</g>
</svg>
