<svg xmlns="http://www.w3.org/2000/svg" viewBox="0 0 76 97"><defs></defs><g id="Layer_2" data-name="Layer 2"><g id="Layer_1-2" data-name="Layer 1" fill="white"><path d="M38,92.07c0-16.74,0-33.81,0-50.88a15.23,15.23,0,0,1,.25-1.83h30c0,10,2.5,20.11-2.24,29.62a24.35,24.35,0,0,1-6.66,7.75C55,80.14,50.18,82.88,45.68,86,43.05,87.89,40.6,90,38,92.07Z"/><path d="M2.91,39.11H32.18V83a32.09,32.09,0,0,1-19-5.39C6.81,73.41,3.19,67.64,3,60,2.75,53.07,2.91,46.12,2.91,39.11Z"/><path d="M32.57,6.07a8,8,0,0,1,.15,1.27c0,8.19,0,16.38,0,25.09H3.63c1-5.65,4.77-9.57,9.29-12.77,4-2.8,8.18-5.18,12.18-7.89C27.61,10.08,29.92,8.11,32.57,6.07Z"/><path d="M66.72,32.47H38.35V15.26C48.92,12.41,64.9,20.8,66.72,32.47Z"/></g></g></svg>