<svg width="30" height="30" viewBox="0 0 30 30" xmlns="http://www.w3.org/2000/svg">
<path fill="white" d="M21.6667 0H8.33333C3.58333 0 0 3.58333 0 8.33333V21.6667C0 26.4167 3.58333 30 8.33333 30H21.6667C26.4167 30 30 26.4167 30 21.6667V8.33333C30 3.58333 26.4167 0 21.6667 0ZM27.5 21.3333C27.5 24.75 24.75 27.5 21.3333 27.5H8.66667C5.25 27.5 2.5 24.75 2.5 21.3333V17.6667C3.33333 17 5.33333 15.9167 8.33333 15.9167C8.75 15.9167 9.25 15.9167 9.75 16L11.25 21.6667C11.4167 22.25 11.9167 22.5833 12.4167 22.5833C13 22.5833 13.4167 22.1667 13.5833 21.6667C13.5833 21.6667 14.0833 19.5 14.75 17C14.9167 17.0833 15.1667 17.0833 15.3333 17.1667C15.4167 17.1667 15.5 17.1667 15.5 17.25C16.0833 19.6667 16.5833 21.6667 16.5833 21.6667C16.75 22.25 17.1667 22.5833 17.75 22.5833C18.3333 22.5833 18.75 22.1667 18.9167 21.6667L19.8333 18.1667C22.4167 18.5833 25 18.5 27.5833 17V21.3333H27.5ZM27.5 14C25.1667 15.8333 22.8333 16.0833 20.4167 15.6667L21.75 10.5C21.9167 9.83333 21.5 9.16667 20.9167 9C20.25 8.83333 19.5833 9.25 19.4167 9.91667C19.4167 9.91667 18.75 12.5 18.0833 15.25C17.9167 15.1667 17.75 15.1667 17.5833 15.0833C16.9167 12.4167 16.3333 9.91667 16.3333 9.91667C16.1667 9.33333 15.75 9 15.1667 9C14.5833 9 14.1667 9.41667 14 9.91667C14 9.91667 13.5833 11.75 13 13.9167C12.5833 13.8333 12.1667 13.75 11.6667 13.6667C11.0833 11.5833 10.6667 9.91667 10.6667 9.91667C10.5 9.25 9.83333 8.83333 9.16667 9.08333C8.5 9.25 8.16667 9.91667 8.33333 10.5833L9.08333 13.3333H8.41667C5.83333 13.3333 3.91667 14 2.58333 14.75V8.75C2.5 5.25 5.25 2.5 8.66667 2.5H21.25C24.6667 2.5 27.4167 5.25 27.4167 8.66667V14H27.5Z"/>
</svg>
